<?xml version="1.0" standalone="no"?><!DOCTYPE svg PUBLIC "-//W3C//DTD SVG 1.1//EN" "http://www.w3.org/Graphics/SVG/1.1/DTD/svg11.dtd"><svg t="1656676516288" class="icon" viewBox="0 0 1024 1024" version="1.1" xmlns="http://www.w3.org/2000/svg" p-id="24088" xmlns:xlink="http://www.w3.org/1999/xlink" width="200" height="200"><defs><style type="text/css">@font-face { font-family: feedback-iconfont; src: url("//at.alicdn.com/t/font_1031158_u69w8yhxdu.woff2?t=1630033759944") format("woff2"), url("//at.alicdn.com/t/font_1031158_u69w8yhxdu.woff?t=1630033759944") format("woff"), url("//at.alicdn.com/t/font_1031158_u69w8yhxdu.ttf?t=1630033759944") format("truetype"); }
</style></defs><path d="M292.867164 511.588631c0 44.675502-17.397229 86.679152-48.988738 118.268614-9.827833 9.827833-9.827833 25.771967 0 35.599799 4.913916 4.913916 11.357675 7.369851 17.801435 7.369851a25.106818 25.106818 0 0 0 17.801435-7.369851c41.094954-41.102117 63.73458-95.747691 63.73458-153.868413s-22.636556-112.766296-63.73458-153.868413c-65.221444-65.214281-65.221444-171.328064 0-236.543368 9.827833-9.827833 9.827833-25.765827 0-35.593659-9.834996-9.834996-25.771967-9.834996-35.5998 0-41.102117 41.094954-63.73458 95.741551-63.73458 153.868413 0 58.123792 22.633486 112.766296 63.73458 153.865343 31.588439 31.591509 48.985668 73.596182 48.985668 118.271684zM548.435841 511.588631c0 44.675502-17.397229 86.679152-48.988738 118.268614-9.827833 9.827833-9.827833 25.771967 0 35.599799 4.913916 4.913916 11.357675 7.369851 17.801434 7.369851s12.884448-2.454912 17.801435-7.369851c41.102117-41.102117 63.73458-95.747691 63.73458-153.868413S576.151066 398.822334 535.049972 357.720218c-65.214281-65.214281-65.214281-171.328064 0-236.543368 9.827833-9.827833 9.827833-25.765827 0-35.593659-9.834996-9.834996-25.771967-9.834996-35.599799 0-41.094954 41.094954-63.73458 95.741551-63.73458 153.868413 0 58.123792 22.636556 112.766296 63.73458 153.865343 31.589462 31.591509 48.985668 73.596182 48.985668 118.271684zM744.520751 629.856221c-9.827833 9.834996-9.827833 25.771967 0 35.5998a25.081235 25.081235 0 0 0 17.795295 7.369851c6.446829 0 12.884448-2.454912 17.798364-7.369851 41.102117-41.102117 63.73458-95.747691 63.73458-153.868413s-22.632463-112.766296-63.73458-153.868414c-31.588439-31.595602-48.988738-73.593112-48.988737-118.268613 0-44.681642 17.403369-86.679152 48.988737-118.274754 9.831926-9.827833 9.831926-25.765827 0-35.59366-9.827833-9.827833-25.765827-9.827833-35.593659 0-41.102117 41.102117-63.73458 95.741551-63.73458 153.868414 0 58.123792 22.632463 112.766296 63.73458 153.868413 65.211211 65.215304 65.211211 171.322947 0 236.537227zM891.932102 945.7928H132.060735c-30.420847 0-55.16746-24.746614-55.167461-55.17053V771.092943c0-30.420847 24.749684-55.17053 55.167461-55.17053h759.87546c30.420847 0 55.17053 24.746614 55.170531 55.17053v119.529327c-0.004093 30.423917-24.753777 55.17053-55.174624 55.17053zM132.060735 755.537665c-8.580422 0-15.558347 6.980995-15.558348 15.558348v119.529327c0 8.580422 6.977925 15.558347 15.558348 15.558347h759.87546c8.580422 0 15.558347-6.980995 15.558348-15.558347V771.096013c0-8.580422-6.980995-15.558347-15.558348-15.558348H132.060735z" fill="" p-id="24089"></path></svg>