<?xml version="1.0" standalone="no"?><!DOCTYPE svg PUBLIC "-//W3C//DTD SVG 1.1//EN" "http://www.w3.org/Graphics/SVG/1.1/DTD/svg11.dtd"><svg t="1656676350872" class="icon" viewBox="0 0 1024 1024" version="1.1" xmlns="http://www.w3.org/2000/svg" p-id="20004" xmlns:xlink="http://www.w3.org/1999/xlink" width="200" height="200"><defs><style type="text/css">@font-face { font-family: feedback-iconfont; src: url("//at.alicdn.com/t/font_1031158_u69w8yhxdu.woff2?t=1630033759944") format("woff2"), url("//at.alicdn.com/t/font_1031158_u69w8yhxdu.woff?t=1630033759944") format("woff"), url("//at.alicdn.com/t/font_1031158_u69w8yhxdu.ttf?t=1630033759944") format("truetype"); }
</style></defs><path d="M778.176 758.912c-68.672-65.856-106.464-153.568-106.464-246.912s37.792-181.024 106.464-246.88a32 32 0 1 1 44.32 46.176c-55.968 53.696-86.784 124.96-86.784 200.704 0 75.776 30.816 147.04 86.784 200.736a32 32 0 0 1-44.32 46.176z m-576.832-0.32a31.84 31.84 0 0 0 45.248 0.608C314.368 693.216 351.68 605.408 351.68 512c0-93.44-37.312-181.248-105.088-247.232a32 32 0 1 0-44.64 45.856C257.216 364.48 287.68 435.968 287.68 512c0 76-30.464 147.52-85.728 201.344a32 32 0 0 0-0.608 45.248zM0 512C0 229.696 229.696 0 512 0s512 229.696 512 512c0 282.336-229.696 512-512 512S0 794.336 0 512z m64 0c0 247.04 200.96 448 448 448s448-200.96 448-448S759.04 64 512 64 64 264.96 64 512z" fill="#231F1F" p-id="20005"></path></svg>