<?xml version="1.0" standalone="no"?><!DOCTYPE svg PUBLIC "-//W3C//DTD SVG 1.1//EN" "http://www.w3.org/Graphics/SVG/1.1/DTD/svg11.dtd"><svg t="1656676050757" class="icon" viewBox="0 0 1024 1024" version="1.1" xmlns="http://www.w3.org/2000/svg" p-id="16103" xmlns:xlink="http://www.w3.org/1999/xlink" width="200" height="200"><defs><style type="text/css">@font-face { font-family: feedback-iconfont; src: url("//at.alicdn.com/t/font_1031158_u69w8yhxdu.woff2?t=1630033759944") format("woff2"), url("//at.alicdn.com/t/font_1031158_u69w8yhxdu.woff?t=1630033759944") format("woff"), url("//at.alicdn.com/t/font_1031158_u69w8yhxdu.ttf?t=1630033759944") format("truetype"); }
</style></defs><path d="M170.666667 750.933333c-47.786667 0-153.6-238.933333-153.6-303.786666C17.066667 378.88 170.666667 102.4 238.933333 102.4c58.026667 0 112.64 61.44 119.466667 98.986667 0 10.24-3.413333 17.066667-13.653333 20.48-10.24 0-17.066667-3.413333-20.48-13.653334C320.853333 187.733333 279.893333 136.533333 238.933333 136.533333c-34.133333 3.413333-187.733333 242.346667-187.733333 310.613334 0 58.026667 88.746667 235.52 119.466667 266.24 27.306667-34.133333 85.333333-208.213333 85.333333-252.586667 0-40.96-13.653333-54.613333-13.653333-58.026667-6.826667-6.826667-6.826667-17.066667 0-23.893333 6.826667-6.826667 17.066667-6.826667 23.893333 0 3.413333 3.413333 23.893333 23.893333 23.893333 81.92 0 34.133333-68.266667 290.133333-119.466666 290.133333zM358.4 921.6c-88.746667 0-136.533333-61.44-136.533333-119.466667 0-54.613333 95.573333-197.973333 105.813333-215.04 6.826667-6.826667 17.066667-10.24 23.893333-3.413333 6.826667 6.826667 10.24 17.066667 3.413334 23.893333-37.546667 58.026667-98.986667 163.84-98.986667 194.56 0 40.96 37.546667 85.333333 102.4 85.333334s136.533333-78.506667 136.533333-136.533334c0-10.24 6.826667-17.066667 17.066667-17.066666s17.066667 6.826667 17.066667 17.066666c0 71.68-85.333333 170.666667-170.666667 170.666667z" fill="" p-id="16104"></path><path d="M249.173333 744.106667c-3.413333 0-10.24 0-13.653333-3.413334l-44.373333-44.373333c-6.826667-6.826667-6.826667-17.066667 0-23.893333s17.066667-6.826667 23.893333 0L259.413333 716.8c6.826667 6.826667 6.826667 17.066667 0 23.893333-3.413333 0-6.826667 3.413333-10.24 3.413334zM853.333333 750.933333c-51.2 0-119.466667-256-119.466666-290.133333 0-58.026667 17.066667-78.506667 23.893333-81.92 6.826667-6.826667 17.066667-6.826667 23.893333 0 6.826667 6.826667 6.826667 17.066667 0 23.893333 0 0-10.24 13.653333-10.24 54.613334 0 47.786667 61.44 221.866667 85.333334 252.586666 30.72-30.72 119.466667-211.626667 119.466666-269.653333 0-68.266667-167.253333-303.786667-204.8-307.2-37.546667 0-64.853333 47.786667-68.266666 71.68-3.413333 10.24-10.24 17.066667-20.48 13.653333-10.24 0-17.066667-10.24-13.653334-20.48 3.413333-27.306667 34.133333-95.573333 98.986667-95.573333s238.933333 266.24 238.933333 341.333333c0 61.44-105.813333 307.2-153.6 307.2zM512 768h-6.826667c-75.093333-34.133333-112.64-61.44-112.64-85.333333 0-34.133333 44.373333-68.266667 119.466667-68.266667s119.466667 34.133333 119.466667 68.266667c0 23.893333-37.546667 51.2-112.64 85.333333H512z m0-119.466667c-54.613333 0-85.333333 23.893333-85.333333 34.133334 3.413333 6.826667 44.373333 30.72 85.333333 51.2 40.96-20.48 81.92-44.373333 85.333333-51.2 0-10.24-30.72-34.133333-85.333333-34.133334z" fill="" p-id="16105"></path><path d="M761.173333 744.106667c-3.413333 0-10.24 0-13.653333-3.413334-6.826667-6.826667-6.826667-17.066667 0-23.893333l44.373333-44.373333c6.826667-6.826667 17.066667-6.826667 23.893334 0s6.826667 17.066667 0 23.893333l-44.373334 44.373333c-3.413333 0-6.826667 3.413333-10.24 3.413334zM675.84 187.733333c-3.413333 0-10.24 0-13.653333-3.413333-23.893333-27.306667-88.746667-81.92-157.013334-81.92s-133.12 54.613333-157.013333 81.92c-6.826667 6.826667-17.066667 6.826667-23.893333 0s-6.826667-17.066667 0-23.893333c23.893333-27.306667 95.573333-92.16 180.906666-92.16s157.013333 64.853333 184.32 88.746666c6.826667 6.826667 6.826667 17.066667 0 23.893334-6.826667 6.826667-10.24 6.826667-13.653333 6.826666zM512 955.733333c-58.026667 0-92.16-30.72-105.813333-47.786666-6.826667-6.826667-6.826667-17.066667 0-23.893334s17.066667-6.826667 23.893333 0c17.066667 17.066667 40.96 37.546667 81.92 37.546667 30.72 0 40.96-10.24 54.613333-27.306667l10.24-10.24c6.826667-6.826667 17.066667-6.826667 23.893334 0s6.826667 17.066667 0 23.893334c-3.413333 3.413333-6.826667 6.826667-6.826667 10.24-13.653333 17.066667-34.133333 37.546667-81.92 37.546666z" fill="" p-id="16106"></path><path d="M648.533333 921.6c-88.746667 0-153.6-102.4-153.6-170.666667 0-10.24 6.826667-17.066667 17.066667-17.066666s17.066667 6.826667 17.066667 17.066666c0 54.613333 54.613333 136.533333 119.466666 136.533334s102.4-61.44 102.4-102.4c0-30.72-51.2-126.293333-81.92-177.493334-3.413333-6.826667-3.413333-17.066667 6.826667-23.893333 6.826667-3.413333 17.066667-3.413333 23.893333 6.826667 10.24 13.653333 88.746667 143.36 88.746667 197.973333C785.066667 843.093333 737.28 921.6 648.533333 921.6zM375.466667 477.866667c-27.306667 0-51.2-23.893333-51.2-51.2S348.16 375.466667 375.466667 375.466667s51.2 23.893333 51.2 51.2S402.773333 477.866667 375.466667 477.866667z m0-68.266667c-10.24 0-17.066667 6.826667-17.066667 17.066667s6.826667 17.066667 17.066667 17.066666 17.066667-6.826667 17.066666-17.066666-6.826667-17.066667-17.066666-17.066667zM648.533333 477.866667c-27.306667 0-51.2-23.893333-51.2-51.2S621.226667 375.466667 648.533333 375.466667s51.2 23.893333 51.2 51.2S675.84 477.866667 648.533333 477.866667z m0-68.266667c-10.24 0-17.066667 6.826667-17.066666 17.066667s6.826667 17.066667 17.066666 17.066666 17.066667-6.826667 17.066667-17.066666-6.826667-17.066667-17.066667-17.066667z" fill="" p-id="16107"></path></svg>