<?xml version="1.0" standalone="no"?><!DOCTYPE svg PUBLIC "-//W3C//DTD SVG 1.1//EN" "http://www.w3.org/Graphics/SVG/1.1/DTD/svg11.dtd"><svg t="1656676403559" class="icon" viewBox="0 0 1024 1024" version="1.1" xmlns="http://www.w3.org/2000/svg" p-id="22096" xmlns:xlink="http://www.w3.org/1999/xlink" width="200" height="200"><defs><style type="text/css">@font-face { font-family: feedback-iconfont; src: url("//at.alicdn.com/t/font_1031158_u69w8yhxdu.woff2?t=1630033759944") format("woff2"), url("//at.alicdn.com/t/font_1031158_u69w8yhxdu.woff?t=1630033759944") format("woff"), url("//at.alicdn.com/t/font_1031158_u69w8yhxdu.ttf?t=1630033759944") format("truetype"); }
</style></defs><path d="M846.336 939.8272 243.4048 939.8272 243.4048 104.6528c0-14.0288 11.3664-25.4976 25.4976-25.4976l480.0512 0c14.0288 0 25.4976 11.3664 25.4976 25.4976l0 775.68c0 11.4688 9.3184 20.7872 20.7872 20.7872s20.7872-9.3184 20.7872-20.7872L816.0256 104.6528c0-36.9664-30.1056-67.072-67.072-67.072L268.8 37.5808c-36.9664 0-67.072 30.1056-67.072 67.072l0 835.2768-30.3104 0c-11.4688 0-20.7872 9.3184-20.7872 20.7872s9.3184 20.7872 20.7872 20.7872l674.9184 0c11.4688 0 20.7872-9.3184 20.7872-20.7872S857.8048 939.8272 846.336 939.8272z" p-id="22097"></path><path d="M455.4752 177.7664c0-19.1488-15.5648-34.7136-34.7136-34.7136l-75.1616 0c-19.1488 0-34.7136 15.5648-34.7136 34.7136l0 75.1616c0 19.1488 15.5648 34.7136 34.7136 34.7136l75.1616 0c19.1488 0 34.7136-15.5648 34.7136-34.7136L455.4752 177.7664zM432.3328 253.0304c0 6.3488-5.2224 11.5712-11.5712 11.5712l-75.1616 0c-6.3488 0-11.5712-5.2224-11.5712-11.5712l0-75.1616c0-6.3488 5.2224-11.5712 11.5712-11.5712l75.1616 0c6.3488 0 11.5712 5.2224 11.5712 11.5712L432.3328 253.0304z" p-id="22098"></path><path d="M455.4752 359.0144c0-19.1488-15.5648-34.7136-34.7136-34.7136l-75.1616 0c-19.1488 0-34.7136 15.5648-34.7136 34.7136l0 75.1616c0 19.1488 15.5648 34.7136 34.7136 34.7136l75.1616 0c19.1488 0 34.7136-15.5648 34.7136-34.7136L455.4752 359.0144zM432.3328 434.2784c0 6.3488-5.2224 11.5712-11.5712 11.5712l-75.1616 0c-6.3488 0-11.5712-5.2224-11.5712-11.5712l0-75.1616c0-6.3488 5.2224-11.5712 11.5712-11.5712l75.1616 0c6.3488 0 11.5712 5.2224 11.5712 11.5712L432.3328 434.2784z" p-id="22099"></path><path d="M705.2288 178.7904c0-19.1488-15.5648-34.7136-34.7136-34.7136l-75.1616 0c-19.1488 0-34.7136 15.5648-34.7136 34.7136L560.64 253.952c0 19.1488 15.5648 34.7136 34.7136 34.7136l75.1616 0c19.1488 0 34.7136-15.5648 34.7136-34.7136L705.2288 178.7904zM682.0864 253.952c0 6.3488-5.2224 11.5712-11.5712 11.5712l-75.1616 0c-6.3488 0-11.5712-5.2224-11.5712-11.5712l0-75.1616c0-6.3488 5.2224-11.5712 11.5712-11.5712l75.1616 0c6.3488 0 11.5712 5.2224 11.5712 11.5712L682.0864 253.952z" p-id="22100"></path><path d="M705.2288 360.0384c0-19.1488-15.5648-34.7136-34.7136-34.7136l-75.1616 0c-19.1488 0-34.7136 15.5648-34.7136 34.7136L560.64 435.2c0 19.1488 15.5648 34.7136 34.7136 34.7136l75.1616 0c19.1488 0 34.7136-15.5648 34.7136-34.7136L705.2288 360.0384zM682.0864 435.2c0 6.3488-5.2224 11.5712-11.5712 11.5712l-75.1616 0c-6.3488 0-11.5712-5.2224-11.5712-11.5712l0-75.1616c0-6.3488 5.2224-11.5712 11.5712-11.5712l75.1616 0c6.3488 0 11.5712 5.2224 11.5712 11.5712L682.0864 435.2z" p-id="22101"></path><path d="M420.7616 512.7168l-75.1616 0c-19.1488 0-34.7136 15.5648-34.7136 34.7136L310.8864 622.592c0 19.1488 15.5648 34.7136 34.7136 34.7136l75.1616 0c19.1488 0 34.7136-15.5648 34.7136-34.7136l0-75.1616C455.4752 528.2816 439.9104 512.7168 420.7616 512.7168zM432.3328 622.592c0 6.3488-5.2224 11.5712-11.5712 11.5712l-75.1616 0c-6.3488 0-11.5712-5.2224-11.5712-11.5712l0-75.1616c0-6.3488 5.2224-11.5712 11.5712-11.5712l75.1616 0c6.3488 0 11.5712 5.2224 11.5712 11.5712L432.3328 622.592z" p-id="22102"></path><path d="M670.5152 513.6384l-75.1616 0c-19.1488 0-34.7136 15.5648-34.7136 34.7136l0 75.1616c0 19.1488 15.5648 34.7136 34.7136 34.7136l75.1616 0c19.1488 0 34.7136-15.5648 34.7136-34.7136l0-75.1616C705.2288 529.2032 689.5616 513.6384 670.5152 513.6384zM682.0864 623.5136c0 6.3488-5.2224 11.5712-11.5712 11.5712l-75.1616 0c-6.3488 0-11.5712-5.2224-11.5712-11.5712l0-75.1616c0-6.3488 5.2224-11.5712 11.5712-11.5712l75.1616 0c6.3488 0 11.5712 5.2224 11.5712 11.5712L682.0864 623.5136z" p-id="22103"></path></svg>