<?xml version="1.0" standalone="no"?><!DOCTYPE svg PUBLIC "-//W3C//DTD SVG 1.1//EN" "http://www.w3.org/Graphics/SVG/1.1/DTD/svg11.dtd"><svg t="1656555349066" class="icon" viewBox="0 0 1024 1024" version="1.1" xmlns="http://www.w3.org/2000/svg" p-id="14886" xmlns:xlink="http://www.w3.org/1999/xlink" width="200" height="200"><defs><style type="text/css">@font-face { font-family: feedback-iconfont; src: url("//at.alicdn.com/t/font_1031158_u69w8yhxdu.woff2?t=1630033759944") format("woff2"), url("//at.alicdn.com/t/font_1031158_u69w8yhxdu.woff?t=1630033759944") format("woff"), url("//at.alicdn.com/t/font_1031158_u69w8yhxdu.ttf?t=1630033759944") format("truetype"); }
</style></defs><path d="M893.456828 709.055005" p-id="14887"></path><path d="M491.889987 337.939709" p-id="14888"></path><path d="M568.154951 338.993714" p-id="14889"></path><path d="M709.039655 792.412504c-20.708648-174.401052-107.328447-464.491986-126.550231-527.540951 62.075801-67.906599 83.463923-175.224814 84.384899-179.975001 2.174526-11.244089-5.068436-22.170952-16.271592-24.539906-2.729158-0.584308-67.332525-14.147208-122.711809-14.147208-55.359842 0-120.362298 13.542434-123.101689 14.116509-11.213389 2.359744-18.466584 13.265118-16.302291 24.529673 0.910743 4.739954 22.167882 112.090914 84.238566 180.010817-19.271926 63.060221-106.016569 352.901469-126.722146 527.289218-0.677429 5.714142 1.026376 11.460006 4.699022 15.891945 2.298346 2.77009 57.565067 68.62496 164.40642 133.402289 3.241834 1.969864 6.883781 2.913353 10.535961 2.913353 2.034333 0 4.052293-0.35918 6.027274-0.937348 2.359744-0.431835 4.678556-1.119497 6.817266-2.365884 1.609661-0.938372 3.009544-2.142803 4.300956-3.450589 113.421212-63.967894 160.426783-127.675868 162.402787-130.402979C708.290595 802.927999 709.654662 797.644669 709.039655 792.412504zM527.889899 88.231507c32.584116 0 69.907163 4.090155 92.713588 7.988951-8.966209 32.93204-30.634718 97.476055-70.625524 139.431609L505.237993 235.652068c-39.980573-41.955554-61.576427-106.47808-70.502727-139.421376C457.665511 92.331895 495.245408 88.231507 527.889899 88.231507zM526.084787 898.842489c-75.077929-47.192835-121.593336-95.489818-137.187499-112.38665 21.626553-167.042457 102.963023-435.171194 123.091456-508.84924l31.229259 0c20.128433 73.678046 101.516068 342.770737 123.019825 509.772262C652.499941 803.660686 609.185436 851.310939 526.084787 898.842489z" p-id="14890"></path></svg>