<?xml version="1.0" standalone="no"?><!DOCTYPE svg PUBLIC "-//W3C//DTD SVG 1.1//EN" "http://www.w3.org/Graphics/SVG/1.1/DTD/svg11.dtd"><svg t="1656555058372" class="icon" viewBox="0 0 1024 1024" version="1.1" xmlns="http://www.w3.org/2000/svg" p-id="4844" xmlns:xlink="http://www.w3.org/1999/xlink" width="200" height="200"><defs><style type="text/css">@font-face { font-family: feedback-iconfont; src: url("//at.alicdn.com/t/font_1031158_u69w8yhxdu.woff2?t=1630033759944") format("woff2"), url("//at.alicdn.com/t/font_1031158_u69w8yhxdu.woff?t=1630033759944") format("woff"), url("//at.alicdn.com/t/font_1031158_u69w8yhxdu.ttf?t=1630033759944") format("truetype"); }
</style></defs><path d="M275.2 160H172.8l102.4 102.4V160z m243.2 38.4c19.2 0 38.4 19.2 38.4 38.4s-19.2 38.4-38.4 38.4-38.4-19.2-38.4-38.4 19.2-38.4 38.4-38.4zM313.6 12.8h409.6c19.2 0 38.4 19.2 38.4 38.4v64h160c12.8 0 25.6 12.8 25.6 25.6 0 6.4 0 12.8-6.4 19.2L768 332.8v64h160c12.8 0 25.6 12.8 25.6 25.6 0 6.4 0 12.8-6.4 12.8l-172.8 172.8v64h160c12.8 0 25.6 12.8 25.6 25.6 0 6.4 0 12.8-6.4 19.2l-172.8 172.8v89.6c0 19.2-19.2 38.4-38.4 38.4H313.6c-19.2 0-38.4-19.2-38.4-38.4v-89.6l-172.8-172.8c-6.4-6.4-6.4-12.8-6.4-19.2 0-12.8 12.8-25.6 25.6-25.6h160v-64L102.4 428.8s-6.4-6.4-6.4-12.8c0-12.8 12.8-25.6 25.6-25.6h160v-64L102.4 153.6s-6.4-6.4-6.4-12.8c0-12.8 12.8-25.6 25.6-25.6h160v-64c-6.4-19.2 12.8-38.4 32-38.4z m448 147.2v102.4l102.4-102.4h-102.4z m0 275.2v102.4l102.4-102.4h-102.4z m0 281.6v102.4l102.4-102.4h-102.4z m-486.4 96v-102.4H172.8l102.4 102.4z m0-275.2V435.2H172.8l102.4 102.4z m409.6-448H352v838.4h332.8V89.6zM608 704c44.8 44.8 44.8 121.6 0 166.4-44.8 44.8-121.6 44.8-166.4 0-44.8-44.8-44.8-121.6 0-166.4 38.4-44.8 115.2-44.8 166.4 0z m-32 32c-32-32-76.8-32-102.4 0-32 25.6-32 76.8 0 102.4 25.6 25.6 76.8 25.6 102.4 0 25.6-25.6 25.6-76.8 0-102.4z m32-307.2c44.8 44.8 44.8 121.6 0 166.4-51.2 44.8-128 44.8-172.8 0-44.8-44.8-44.8-121.6 0-166.4 44.8-51.2 121.6-51.2 172.8 0z m-32 32c-32-25.6-76.8-25.6-102.4 0-32 32-32 76.8 0 102.4 25.6 25.6 76.8 25.6 102.4 0 25.6-25.6 25.6-76.8 0-102.4z m32-307.2c44.8 51.2 44.8 121.6 0 166.4-51.2 44.8-128 44.8-172.8 0-44.8-44.8-44.8-121.6 0-166.4 44.8-51.2 121.6-51.2 172.8 0z m-32 32c-25.6-25.6-76.8-32-108.8 0-25.6 25.6-25.6 76.8 0 102.4 25.6 25.6 76.8 32 102.4 0 32-25.6 32-70.4 6.4-102.4z" fill="" p-id="4845"></path></svg>